<mxfile host="app.diagrams.net" modified="2024-03-17T15:16:23.240Z" agent="Mozilla/5.0 (Windows NT 10.0; Win64; x64) AppleWebKit/537.36 (KHTML, like Gecko) Chrome/122.0.0.0 Safari/537.36" etag="92ALt3zdQo219dBsksBJ" version="24.0.7" type="github">
  <diagram name="第 1 页" id="rSjbLI-qnoq5vf5nYvKy">
    <mxGraphModel dx="676" dy="372" grid="0" gridSize="10" guides="1" tooltips="1" connect="1" arrows="1" fold="1" page="1" pageScale="1" pageWidth="827" pageHeight="1169" math="1" shadow="0">
      <root>
        <mxCell id="0" />
        <mxCell id="1" parent="0" />
        <mxCell id="QjQi6mAfNc4KyvHt464P-1" value="" style="rounded=1;whiteSpace=wrap;html=1;fontFamily=Helvetica;fontSize=11;labelBackgroundColor=default;dashed=1;fillColor=none;strokeColor=#7999c7;strokeWidth=3;" vertex="1" parent="1">
          <mxGeometry x="224.33" y="170" width="222" height="165" as="geometry" />
        </mxCell>
        <mxCell id="QjQi6mAfNc4KyvHt464P-2" value="&lt;font face=&quot;宋体&quot;&gt;&lt;span style=&quot;font-size: 10px;&quot;&gt;线&lt;/span&gt;&lt;/font&gt;&lt;div&gt;&lt;font face=&quot;宋体&quot;&gt;&lt;span style=&quot;font-size: 10px;&quot;&gt;性&lt;/span&gt;&lt;/font&gt;&lt;/div&gt;&lt;div&gt;&lt;font face=&quot;宋体&quot;&gt;&lt;span style=&quot;font-size: 10px;&quot;&gt;层&lt;/span&gt;&lt;/font&gt;&lt;/div&gt;" style="rounded=1;whiteSpace=wrap;html=1;fillColor=#dae8fc;strokeColor=#6c8ebf;" vertex="1" parent="1">
          <mxGeometry x="270.33" y="181.5" width="25" height="44.5" as="geometry" />
        </mxCell>
        <mxCell id="QjQi6mAfNc4KyvHt464P-3" style="edgeStyle=orthogonalEdgeStyle;rounded=0;orthogonalLoop=1;jettySize=auto;html=1;entryX=0.5;entryY=0;entryDx=0;entryDy=0;strokeColor=default;align=center;verticalAlign=middle;fontFamily=Helvetica;fontSize=11;fontColor=default;labelBackgroundColor=default;endArrow=blockThin;endFill=1;endSize=3;" edge="1" parent="1" source="QjQi6mAfNc4KyvHt464P-5" target="QjQi6mAfNc4KyvHt464P-12">
          <mxGeometry relative="1" as="geometry" />
        </mxCell>
        <mxCell id="QjQi6mAfNc4KyvHt464P-4" style="edgeStyle=orthogonalEdgeStyle;rounded=0;orthogonalLoop=1;jettySize=auto;html=1;strokeColor=default;align=center;verticalAlign=middle;fontFamily=Helvetica;fontSize=11;fontColor=default;labelBackgroundColor=default;endArrow=none;endFill=0;endSize=3;" edge="1" parent="1" source="QjQi6mAfNc4KyvHt464P-5">
          <mxGeometry relative="1" as="geometry">
            <mxPoint x="166.99666666666664" y="224.5" as="targetPoint" />
          </mxGeometry>
        </mxCell>
        <mxCell id="QjQi6mAfNc4KyvHt464P-5" value="&lt;font face=&quot;Times New Roman&quot;&gt;Norm&lt;/font&gt;" style="rounded=1;whiteSpace=wrap;html=1;fontFamily=Helvetica;fontSize=11;fontColor=default;labelBackgroundColor=default;strokeColor=default;align=center;verticalAlign=middle;" vertex="1" parent="1">
          <mxGeometry x="188.33" y="215" width="30" height="19" as="geometry" />
        </mxCell>
        <mxCell id="QjQi6mAfNc4KyvHt464P-6" style="edgeStyle=orthogonalEdgeStyle;rounded=0;orthogonalLoop=1;jettySize=auto;html=1;entryX=0.5;entryY=1;entryDx=0;entryDy=0;strokeColor=default;align=center;verticalAlign=middle;fontFamily=Helvetica;fontSize=11;fontColor=default;labelBackgroundColor=default;endArrow=blockThin;endFill=1;endSize=3;" edge="1" parent="1" source="QjQi6mAfNc4KyvHt464P-8" target="QjQi6mAfNc4KyvHt464P-12">
          <mxGeometry relative="1" as="geometry" />
        </mxCell>
        <mxCell id="QjQi6mAfNc4KyvHt464P-7" style="edgeStyle=orthogonalEdgeStyle;rounded=0;orthogonalLoop=1;jettySize=auto;html=1;strokeColor=default;align=center;verticalAlign=middle;fontFamily=Helvetica;fontSize=11;fontColor=default;labelBackgroundColor=default;endArrow=none;endFill=0;endSize=3;" edge="1" parent="1" source="QjQi6mAfNc4KyvHt464P-8">
          <mxGeometry relative="1" as="geometry">
            <mxPoint x="166.99666666666664" y="284.5" as="targetPoint" />
          </mxGeometry>
        </mxCell>
        <mxCell id="QjQi6mAfNc4KyvHt464P-8" value="&lt;font face=&quot;Times New Roman&quot;&gt;Norm&lt;/font&gt;" style="rounded=1;whiteSpace=wrap;html=1;fontFamily=Helvetica;fontSize=11;fontColor=default;labelBackgroundColor=default;strokeColor=default;align=center;verticalAlign=middle;" vertex="1" parent="1">
          <mxGeometry x="188.33" y="275" width="30" height="19" as="geometry" />
        </mxCell>
        <mxCell id="QjQi6mAfNc4KyvHt464P-9" style="edgeStyle=orthogonalEdgeStyle;rounded=0;orthogonalLoop=1;jettySize=auto;html=1;entryX=0;entryY=0.5;entryDx=0;entryDy=0;strokeColor=default;align=center;verticalAlign=middle;fontFamily=Helvetica;fontSize=11;fontColor=default;labelBackgroundColor=default;endArrow=blockThin;endFill=1;endSize=3;" edge="1" parent="1" source="QjQi6mAfNc4KyvHt464P-12" target="QjQi6mAfNc4KyvHt464P-2">
          <mxGeometry relative="1" as="geometry">
            <Array as="points">
              <mxPoint x="255.33" y="255" />
              <mxPoint x="255.33" y="204" />
            </Array>
          </mxGeometry>
        </mxCell>
        <mxCell id="QjQi6mAfNc4KyvHt464P-10" style="edgeStyle=orthogonalEdgeStyle;rounded=0;orthogonalLoop=1;jettySize=auto;html=1;entryX=0;entryY=0.5;entryDx=0;entryDy=0;strokeColor=default;align=center;verticalAlign=middle;fontFamily=Helvetica;fontSize=11;fontColor=default;labelBackgroundColor=default;endArrow=blockThin;endFill=1;endSize=3;" edge="1" parent="1" source="QjQi6mAfNc4KyvHt464P-12" target="QjQi6mAfNc4KyvHt464P-16">
          <mxGeometry relative="1" as="geometry" />
        </mxCell>
        <mxCell id="QjQi6mAfNc4KyvHt464P-11" style="edgeStyle=orthogonalEdgeStyle;rounded=0;orthogonalLoop=1;jettySize=auto;html=1;entryX=0;entryY=0.5;entryDx=0;entryDy=0;strokeColor=default;align=center;verticalAlign=middle;fontFamily=Helvetica;fontSize=11;fontColor=default;labelBackgroundColor=default;endArrow=blockThin;endFill=1;endSize=3;" edge="1" parent="1" source="QjQi6mAfNc4KyvHt464P-12" target="QjQi6mAfNc4KyvHt464P-18">
          <mxGeometry relative="1" as="geometry">
            <Array as="points">
              <mxPoint x="255.33" y="255" />
              <mxPoint x="255.33" y="307" />
            </Array>
          </mxGeometry>
        </mxCell>
        <mxCell id="QjQi6mAfNc4KyvHt464P-12" value="&lt;font style=&quot;font-size: 11px;&quot;&gt;C&lt;/font&gt;" style="ellipse;whiteSpace=wrap;html=1;aspect=fixed;fontFamily=Helvetica;fontSize=11;fontColor=default;labelBackgroundColor=default;" vertex="1" parent="1">
          <mxGeometry x="228.33" y="245" width="20" height="20" as="geometry" />
        </mxCell>
        <mxCell id="QjQi6mAfNc4KyvHt464P-13" style="edgeStyle=orthogonalEdgeStyle;rounded=0;orthogonalLoop=1;jettySize=auto;html=1;strokeColor=default;align=center;verticalAlign=middle;fontFamily=Helvetica;fontSize=11;fontColor=default;labelBackgroundColor=default;endArrow=blockThin;endFill=1;endSize=3;" edge="1" parent="1" source="QjQi6mAfNc4KyvHt464P-14">
          <mxGeometry relative="1" as="geometry">
            <mxPoint x="365.4508053691275" y="307.25" as="targetPoint" />
          </mxGeometry>
        </mxCell>
        <mxCell id="QjQi6mAfNc4KyvHt464P-14" value="&lt;font face=&quot;Times New Roman&quot;&gt;Pool&lt;/font&gt;" style="rounded=1;whiteSpace=wrap;html=1;fillColor=#dae8fc;strokeColor=#6c8ebf;" vertex="1" parent="1">
          <mxGeometry x="310.33" y="297.75" width="35" height="19" as="geometry" />
        </mxCell>
        <mxCell id="QjQi6mAfNc4KyvHt464P-15" style="edgeStyle=orthogonalEdgeStyle;rounded=0;orthogonalLoop=1;jettySize=auto;html=1;entryX=0;entryY=0.5;entryDx=0;entryDy=0;strokeColor=default;align=center;verticalAlign=middle;fontFamily=Helvetica;fontSize=11;fontColor=default;labelBackgroundColor=default;endArrow=blockThin;endFill=1;endSize=3;" edge="1" parent="1" source="QjQi6mAfNc4KyvHt464P-16" target="QjQi6mAfNc4KyvHt464P-20">
          <mxGeometry relative="1" as="geometry" />
        </mxCell>
        <mxCell id="QjQi6mAfNc4KyvHt464P-16" value="&lt;font face=&quot;宋体&quot;&gt;&lt;span style=&quot;font-size: 10px;&quot;&gt;线&lt;/span&gt;&lt;/font&gt;&lt;div&gt;&lt;font face=&quot;宋体&quot;&gt;&lt;span style=&quot;font-size: 10px;&quot;&gt;性&lt;/span&gt;&lt;/font&gt;&lt;/div&gt;&lt;div&gt;&lt;font face=&quot;宋体&quot;&gt;&lt;span style=&quot;font-size: 10px;&quot;&gt;层&lt;/span&gt;&lt;/font&gt;&lt;/div&gt;" style="rounded=1;whiteSpace=wrap;html=1;fillColor=#dae8fc;strokeColor=#6c8ebf;" vertex="1" parent="1">
          <mxGeometry x="270.33" y="232.75" width="25" height="44.5" as="geometry" />
        </mxCell>
        <mxCell id="QjQi6mAfNc4KyvHt464P-17" style="edgeStyle=orthogonalEdgeStyle;rounded=0;orthogonalLoop=1;jettySize=auto;html=1;strokeColor=default;align=center;verticalAlign=middle;fontFamily=Helvetica;fontSize=11;fontColor=default;labelBackgroundColor=default;endArrow=blockThin;endFill=1;endSize=3;exitX=1;exitY=0.5;exitDx=0;exitDy=0;" edge="1" parent="1" source="QjQi6mAfNc4KyvHt464P-18">
          <mxGeometry relative="1" as="geometry">
            <mxPoint x="290.33" y="307.1913966480448" as="sourcePoint" />
            <mxPoint x="310.33" y="307.2545251396649" as="targetPoint" />
          </mxGeometry>
        </mxCell>
        <mxCell id="QjQi6mAfNc4KyvHt464P-18" value="&lt;font face=&quot;宋体&quot;&gt;&lt;span style=&quot;font-size: 10px;&quot;&gt;线&lt;/span&gt;&lt;/font&gt;&lt;div&gt;&lt;font face=&quot;宋体&quot;&gt;&lt;span style=&quot;font-size: 10px;&quot;&gt;性&lt;/span&gt;&lt;/font&gt;&lt;/div&gt;&lt;div&gt;&lt;font face=&quot;宋体&quot;&gt;&lt;span style=&quot;font-size: 10px;&quot;&gt;层&lt;/span&gt;&lt;/font&gt;&lt;/div&gt;" style="rounded=1;whiteSpace=wrap;html=1;fillColor=#dae8fc;strokeColor=#6c8ebf;" vertex="1" parent="1">
          <mxGeometry x="270.33" y="285" width="25" height="44.5" as="geometry" />
        </mxCell>
        <mxCell id="QjQi6mAfNc4KyvHt464P-19" style="edgeStyle=orthogonalEdgeStyle;rounded=0;orthogonalLoop=1;jettySize=auto;html=1;strokeColor=default;align=center;verticalAlign=middle;fontFamily=Helvetica;fontSize=11;fontColor=default;labelBackgroundColor=default;endArrow=blockThin;endFill=1;endSize=3;" edge="1" parent="1" source="QjQi6mAfNc4KyvHt464P-20">
          <mxGeometry relative="1" as="geometry">
            <mxPoint x="412.9966666666666" y="255" as="targetPoint" />
          </mxGeometry>
        </mxCell>
        <mxCell id="QjQi6mAfNc4KyvHt464P-20" value="&lt;font face=&quot;宋体&quot;&gt;&lt;span style=&quot;font-size: 10px;&quot;&gt;多头自注意力&lt;/span&gt;&lt;/font&gt;" style="rounded=1;whiteSpace=wrap;html=1;fillColor=#dae8fc;strokeColor=#6c8ebf;" vertex="1" parent="1">
          <mxGeometry x="366.33" y="197.5" width="25" height="115" as="geometry" />
        </mxCell>
        <mxCell id="QjQi6mAfNc4KyvHt464P-21" style="edgeStyle=orthogonalEdgeStyle;rounded=0;orthogonalLoop=1;jettySize=auto;html=1;entryX=-0.043;entryY=0.054;entryDx=0;entryDy=0;entryPerimeter=0;strokeColor=default;align=center;verticalAlign=middle;fontFamily=Helvetica;fontSize=11;fontColor=default;labelBackgroundColor=default;endArrow=blockThin;endFill=1;endSize=3;" edge="1" parent="1" source="QjQi6mAfNc4KyvHt464P-2" target="QjQi6mAfNc4KyvHt464P-20">
          <mxGeometry relative="1" as="geometry" />
        </mxCell>
        <mxCell id="QjQi6mAfNc4KyvHt464P-22" style="edgeStyle=orthogonalEdgeStyle;rounded=0;orthogonalLoop=1;jettySize=auto;html=1;strokeColor=default;align=center;verticalAlign=middle;fontFamily=Helvetica;fontSize=11;fontColor=default;labelBackgroundColor=default;endArrow=blockThin;endFill=1;endSize=3;" edge="1" parent="1" source="QjQi6mAfNc4KyvHt464P-23">
          <mxGeometry relative="1" as="geometry">
            <mxPoint x="459.9966666666666" y="255" as="targetPoint" />
          </mxGeometry>
        </mxCell>
        <mxCell id="QjQi6mAfNc4KyvHt464P-23" value="&lt;font face=&quot;宋体&quot;&gt;&lt;span style=&quot;font-size: 10px;&quot;&gt;上&lt;/span&gt;&lt;/font&gt;&lt;div&gt;&lt;font face=&quot;宋体&quot;&gt;&lt;span style=&quot;font-size: 10px;&quot;&gt;采&lt;/span&gt;&lt;/font&gt;&lt;/div&gt;&lt;div&gt;&lt;font face=&quot;宋体&quot;&gt;&lt;span style=&quot;font-size: 10px;&quot;&gt;样&lt;/span&gt;&lt;/font&gt;&lt;/div&gt;" style="rounded=1;whiteSpace=wrap;html=1;fillColor=#dae8fc;strokeColor=#6c8ebf;" vertex="1" parent="1">
          <mxGeometry x="413.33" y="232.75" width="25" height="44.5" as="geometry" />
        </mxCell>
        <mxCell id="QjQi6mAfNc4KyvHt464P-24" value="&lt;span style=&quot;font-family: &amp;quot;Times New Roman&amp;quot;; font-size: 10px;&quot;&gt;`X_i^r`&lt;/span&gt;" style="text;strokeColor=none;align=center;fillColor=none;html=1;verticalAlign=middle;whiteSpace=wrap;rounded=0;" vertex="1" parent="1">
          <mxGeometry x="163.00000000000003" y="209" width="21.67" height="14" as="geometry" />
        </mxCell>
        <mxCell id="QjQi6mAfNc4KyvHt464P-26" value="&lt;span style=&quot;color: rgb(0, 0, 0); font-family: &amp;quot;Times New Roman&amp;quot;; font-size: 10px; font-style: normal; font-variant-ligatures: normal; font-variant-caps: normal; font-weight: 400; letter-spacing: normal; orphans: 2; text-align: center; text-indent: 0px; text-transform: none; widows: 2; word-spacing: 0px; -webkit-text-stroke-width: 0px; white-space: normal; background-color: rgb(251, 251, 251); text-decoration-thickness: initial; text-decoration-style: initial; text-decoration-color: initial; display: inline !important; float: none;&quot;&gt;`X_i^d`&lt;/span&gt;" style="text;whiteSpace=wrap;html=1;" vertex="1" parent="1">
          <mxGeometry x="164.67000000000002" y="262" width="20" height="27.5" as="geometry" />
        </mxCell>
      </root>
    </mxGraphModel>
  </diagram>
</mxfile>
